<?xml version="1.0" standalone="no"?>
<!DOCTYPE svg PUBLIC "-//W3C//DTD SVG 20010904//EN"
 "http://www.w3.org/TR/2001/REC-SVG-20010904/DTD/svg10.dtd">
<svg version="1.0" xmlns="http://www.w3.org/2000/svg"
 width="500.000000pt" height="500.000000pt" viewBox="0 0 500.000000 500.000000"
 preserveAspectRatio="xMidYMid meet">

<g transform="translate(0.000000,500.000000) scale(0.100000,-0.100000)"
fill="#000000" stroke="none">
<path d="M2402 4249 c-179 -23 -326 -95 -466 -228 -176 -169 -272 -381 -292
-649 l-7 -90 -161 -4 c-143 -3 -167 -6 -214 -27 -68 -31 -143 -111 -164 -178
-12 -38 -29 -265 -69 -953 -58 -998 -58 -971 1 -1114 74 -177 227 -308 416
-356 74 -19 114 -20 1054 -20 940 0 980 1 1054 20 189 48 342 179 416 356 59
142 59 124 6 1035 -58 1016 -57 1003 -89 1065 -32 63 -89 117 -152 146 -44 20
-69 23 -211 26 l-161 4 -7 95 c-34 463 -349 820 -767 873 -92 11 -96 11 -187
-1z m248 -165 c302 -71 532 -363 548 -696 l5 -108 -703 0 -703 0 5 108 c11
222 114 428 283 565 71 57 178 111 261 131 79 19 224 19 304 0z m-1010 -1065
c0 -110 0 -111 30 -141 25 -24 36 -29 58 -23 57 14 67 35 71 160 l3 115 698 0
698 0 3 -115 c4 -125 14 -146 71 -160 22 -6 33 -1 58 23 30 30 30 31 30 141
l0 111 138 0 c156 0 202 -14 242 -70 29 -41 27 -14 86 -1022 53 -899 53 -871
-5 -992 -55 -117 -160 -206 -289 -246 -62 -19 -95 -20 -1032 -20 -937 0 -970
1 -1032 20 -129 40 -234 129 -289 246 -59 122 -59 87 0 1067 57 964 54 935
115 982 42 31 50 33 209 34 l137 1 0 -111z"/>
</g>
</svg>
