<svg xmlns="http://www.w3.org/2000/svg" width="512" height="512" viewBox="0 0 512 512" version="1.1"><path d="" stroke="none" fill="#080404" fill-rule="evenodd"/><path d="M 243.487 3.799 C 228.910 8.839, 218.294 20.088, 214.552 34.460 C 213.225 39.557, 212.995 50.276, 212.964 108.460 L 212.927 176.500 119.786 236 C -3.374 314.677, 3.852 309.881, 1.750 314.348 C 0.224 317.593, -0 321.390, -0 344.084 C -0 364.534, 0.302 370.677, 1.411 372.800 C 5.131 379.921, 13.669 384.118, 20.684 382.273 C 22.783 381.721, 66.500 366.134, 117.833 347.635 C 169.167 329.136, 211.579 314, 212.083 314 C 212.627 314, 213 334.717, 213 364.897 L 213 415.795 189.250 435.647 C 173.560 448.763, 164.907 456.688, 163.752 459 C 161.248 464.012, 161.163 496.435, 163.641 501.655 C 166.245 507.143, 171.226 510.327, 177.848 510.735 C 182.728 511.035, 188.453 509.588, 219.750 500.141 L 256 489.199 292.250 500.088 C 313.681 506.525, 330.250 510.981, 332.782 510.988 C 338.728 511.005, 343.233 508.871, 346.618 504.437 L 349.500 500.662 349.780 481.581 C 350.025 464.906, 349.836 462.059, 348.280 459 C 347.121 456.720, 338.220 448.579, 322.750 435.647 L 299 415.795 299 364.897 C 299 334.717, 299.373 314, 299.917 314 C 300.421 314, 342.833 329.136, 394.167 347.635 C 445.500 366.134, 489.217 381.721, 491.316 382.273 C 498.513 384.166, 505.562 380.696, 510.620 372.770 C 512.974 369.081, 513 368.744, 513 342.461 C 513 327.323, 512.620 316.117, 512.116 316.428 C 511.630 316.729, 510.646 315.559, 509.929 313.830 C 508.370 310.064, 514.734 314.273, 392.238 236 L 299.121 176.500 298.811 105.500 L 298.500 34.500 295.257 27.653 C 291.071 18.815, 287.311 14.143, 280.777 9.661 C 269.946 2.232, 254.871 -0.138, 243.487 3.799 M 252 19.979 C 244.168 21.478, 237.458 26.618, 233.214 34.370 C 231.653 37.221, 231.455 44.070, 231 111.223 C 230.511 183.282, 230.455 184.990, 228.500 186.913 C 227.400 187.994, 179.925 218.656, 123 255.049 C 66.075 291.442, 18.928 321.757, 18.229 322.416 C 17.263 323.326, 17.023 328.555, 17.229 344.190 L 17.500 364.768 118.500 328.391 C 174.050 308.384, 220.712 292.011, 222.194 292.007 C 223.676 292.003, 226.151 293.086, 227.694 294.414 L 230.500 296.827 230.500 359.164 C 230.500 418.749, 230.416 421.639, 228.590 424.655 C 227.540 426.391, 216.187 436.516, 203.362 447.155 L 180.044 466.500 180.022 479.858 L 180 493.217 182.250 492.643 C 183.488 492.327, 199.575 487.503, 218 481.922 C 238.807 475.620, 253.205 471.769, 256 471.758 C 258.881 471.747, 273.182 475.565, 295.749 482.370 C 315.136 488.217, 331.223 493, 331.499 493 C 331.775 493, 331.990 487.038, 331.978 479.750 L 331.956 466.500 308.638 447.155 C 295.813 436.516, 284.460 426.391, 283.410 424.655 C 281.593 421.654, 281.486 418.484, 281.221 359.702 L 280.941 297.905 283.894 294.952 C 285.778 293.068, 287.869 292.003, 289.673 292.007 C 291.228 292.011, 337.950 308.384, 393.500 328.391 L 494.500 364.768 494.771 344.190 C 494.977 328.553, 494.737 323.327, 493.771 322.420 C 493.072 321.763, 445.925 291.442, 389 255.040 C 332.075 218.638, 284.600 187.975, 283.500 186.900 C 281.545 184.990, 281.489 183.287, 281 111.223 C 280.627 56.229, 280.189 36.803, 279.278 34.758 C 278.605 33.249, 276.207 30.011, 273.949 27.560 C 268.346 21.482, 259.718 18.502, 252 19.979 M 0.439 344 C 0.439 359.125, 0.578 365.313, 0.748 357.750 C 0.917 350.188, 0.917 337.813, 0.748 330.250 C 0.578 322.688, 0.439 328.875, 0.439 344" stroke="none" fill="#040404" fill-rule="evenodd"/></svg>