<svg xmlns="http://www.w3.org/2000/svg" width="100" height="100" viewBox="0 0 100 100" version="1.1"><path d="" stroke="none" fill="#080404" fill-rule="evenodd"/><path d="M 18.220 16.578 C -5.589 28.442, 0.701 60.463, 30.984 81.556 C 34.888 84.275, 40.754 88.411, 44.020 90.746 L 49.957 94.991 62.842 85.960 C 87.592 68.612, 96.034 56.919, 95.978 40.068 C 95.902 17.330, 68.798 5.022, 52.750 20.439 L 50 23.081 47.250 20.439 C 40.035 13.507, 27.679 11.864, 18.220 16.578 M 25.500 18.914 C -2.615 25.960, 3.822 56.518, 38.581 81.015 L 50.039 89.089 61.730 80.795 C 81.129 67.033, 88.562 57.994, 90.961 45.248 C 95.284 22.278, 67.828 8.828, 53.097 26.699 L 50 30.456 46.903 26.699 C 41.762 20.462, 32.608 17.132, 25.500 18.914" stroke="none" fill="#040404" fill-rule="evenodd"/></svg>