<?xml version="1.0" standalone="no"?>
<!DOCTYPE svg PUBLIC "-//W3C//DTD SVG 20010904//EN"
 "http://www.w3.org/TR/2001/REC-SVG-20010904/DTD/svg10.dtd">
<svg version="1.0" xmlns="http://www.w3.org/2000/svg"
 width="512.000000pt" height="512.000000pt" viewBox="0 0 512.000000 512.000000"
 preserveAspectRatio="xMidYMid meet">

<g transform="translate(0.000000,512.000000) scale(0.100000,-0.100000)"
fill="#000000" stroke="none">
<path d="M2290 4333 c-402 -40 -759 -208 -1035 -488 -488 -497 -613 -1244
-310 -1870 332 -685 1075 -1052 1825 -899 245 50 529 188 711 344 l56 48 338
-338 c197 -197 349 -341 363 -345 56 -14 113 42 98 97 -3 13 -158 176 -345
362 l-339 339 48 56 c167 195 296 467 352 745 33 161 32 452 0 614 -105 523
-432 947 -907 1177 -259 125 -583 185 -855 158z m302 -164 c648 -69 1174 -556
1305 -1206 27 -134 24 -433 -5 -570 -61 -281 -194 -533 -391 -737 -214 -221
-468 -360 -781 -427 -150 -32 -429 -33 -575 -1 -195 42 -370 113 -517 207
-545 353 -800 1003 -638 1630 184 712 867 1183 1602 1104z"/>
</g>
</svg>
