<?xml version="1.0" standalone="no"?>
<!DOCTYPE svg PUBLIC "-//W3C//DTD SVG 20010904//EN"
 "http://www.w3.org/TR/2001/REC-SVG-20010904/DTD/svg10.dtd">
<svg version="1.0" xmlns="http://www.w3.org/2000/svg"
 width="64.000000pt" height="64.000000pt" viewBox="0 0 64.000000 64.000000"
 preserveAspectRatio="xMidYMid meet">

<g transform="translate(0.000000,64.000000) scale(0.100000,-0.100000)"
fill="#000000" stroke="none">
<path d="M414 621 c-38 -23 -58 -70 -51 -116 6 -34 3 -37 -49 -72 l-55 -37
-30 18 c-86 51 -187 -12 -175 -109 10 -80 103 -122 176 -78 28 16 30 16 84
-20 53 -35 54 -37 49 -75 -17 -129 156 -183 212 -66 19 40 19 58 0 98 -30 62
-102 83 -161 47 l-31 -19 -54 35 -54 35 0 58 0 58 53 34 54 35 37 -20 c48 -26
97 -18 137 24 23 24 29 39 29 75 0 40 -5 50 -37 80 -44 40 -86 44 -134 15z
m121 -36 c56 -55 16 -145 -63 -145 -50 0 -86 36 -86 85 0 77 95 115 149 60z
m-326 -190 c59 -30 59 -120 0 -150 -40 -21 -63 -19 -98 11 -25 20 -31 34 -31
64 0 30 6 44 31 64 35 30 58 32 98 11z m326 -220 c56 -55 16 -145 -63 -145
-50 0 -84 33 -85 84 -2 78 93 117 148 61z"/>
</g>
</svg>
