<?xml version="1.0" standalone="no"?>
<!DOCTYPE svg PUBLIC "-//W3C//DTD SVG 20010904//EN"
 "http://www.w3.org/TR/2001/REC-SVG-20010904/DTD/svg10.dtd">
<svg version="1.0" xmlns="http://www.w3.org/2000/svg"
 width="512.000000pt" height="512.000000pt" viewBox="0 0 512.000000 512.000000"
 preserveAspectRatio="xMidYMid meet">

<g transform="translate(0.000000,512.000000) scale(0.100000,-0.100000)"
fill="#000000" stroke="none">
<path d="M1325 4780 c-380 -5 -403 -7 -458 -28 -98 -36 -169 -82 -243 -157
-114 -115 -136 -168 -251 -625 l-97 -385 0 -155 c0 -147 2 -160 32 -250 33
-100 85 -197 139 -260 l32 -37 3 -944 3 -944 23 -73 c88 -288 303 -494 587
-563 77 -18 128 -19 1465 -19 1359 0 1387 0 1470 20 274 66 495 279 582 560
l23 75 3 944 3 944 29 33 c49 57 108 165 142 264 31 91 32 101 32 250 l0 155
-97 385 c-117 462 -137 511 -256 630 -56 56 -97 87 -151 113 -144 71 -66 67
-1405 70 -666 1 -1390 0 -1610 -3z m265 -853 c0 -340 -4 -555 -11 -593 -33
-182 -183 -341 -364 -389 -261 -68 -531 89 -609 354 -33 111 -24 177 74 573
50 199 98 382 107 405 23 63 76 118 145 152 l61 31 299 0 298 0 0 -533z m1620
6 c0 -430 -3 -540 -15 -591 -35 -149 -141 -283 -276 -351 -112 -57 -158 -63
-392 -59 -177 4 -209 7 -262 27 -120 44 -229 136 -290 246 -64 115 -65 125
-65 719 l0 536 650 0 650 0 0 -527z m978 496 c66 -32 110 -78 140 -144 11 -22
60 -206 111 -410 75 -304 91 -384 91 -446 0 -138 -53 -260 -154 -357 -162
-155 -389 -186 -588 -80 -118 63 -223 208 -247 342 -7 38 -11 253 -11 593 l0
533 298 0 299 0 61 -31z m-2206 -1687 c90 -53 206 -99 296 -117 115 -23 515
-17 612 10 151 41 292 125 405 241 l70 72 35 -45 c106 -134 288 -242 473 -279
125 -25 320 -11 430 31 17 7 17 -30 15 -806 -3 -810 -3 -814 -25 -872 -49
-129 -155 -238 -280 -288 -56 -23 -71 -24 -355 -27 l-297 -3 -3 468 c-4 449
-5 471 -26 541 -70 231 -226 415 -435 512 -208 98 -467 98 -676 0 -205 -96
-364 -284 -432 -510 -22 -72 -23 -92 -27 -543 l-3 -468 -297 3 c-284 3 -299 4
-355 27 -125 50 -231 159 -280 288 -22 58 -22 62 -25 872 -2 776 -2 813 15
806 79 -30 146 -40 283 -39 135 0 151 2 240 32 148 49 286 140 368 243 l45 56
86 -86 c48 -47 112 -101 143 -119z m703 -824 c109 -28 225 -114 285 -214 65
-109 69 -138 69 -616 l1 -428 -480 0 -480 0 1 428 c0 370 2 436 17 493 66 252
328 402 587 337z"/>
</g>
</svg>
