<?xml version="1.0" standalone="no"?>
<!DOCTYPE svg PUBLIC "-//W3C//DTD SVG 20010904//EN"
 "http://www.w3.org/TR/2001/REC-SVG-20010904/DTD/svg10.dtd">
<svg version="1.0" xmlns="http://www.w3.org/2000/svg"
 width="512.000000pt" height="512.000000pt" viewBox="0 0 512.000000 512.000000"
 preserveAspectRatio="xMidYMid meet">

<g transform="translate(0.000000,512.000000) scale(0.100000,-0.100000)"
fill="#000000" stroke="none">
<path d="M2345 4630 c-716 -81 -1339 -516 -1651 -1155 -504 -1033 -81 -2273
950 -2780 799 -393 1754 -235 2385 396 511 511 717 1237 555 1953 -13 55 -24
76 -54 106 -66 66 -156 66 -221 1 -51 -51 -56 -88 -30 -214 98 -475 13 -938
-246 -1337 -366 -562 -1030 -871 -1690 -785 -817 107 -1439 740 -1533 1560
-73 643 239 1299 790 1658 398 259 862 344 1337 246 126 -26 163 -21 214 30
65 65 65 155 -1 221 -41 41 -78 53 -270 85 -113 19 -422 27 -535 15z"/>
<path d="M3775 4626 c-37 -17 -70 -52 -84 -89 -7 -17 -11 -127 -11 -282 l0
-254 -269 -3 c-254 -3 -271 -4 -297 -24 -53 -39 -69 -71 -69 -134 0 -63 16
-95 69 -134 26 -20 43 -21 296 -24 l269 -3 3 -269 c3 -253 4 -270 24 -296 39
-53 71 -69 134 -69 63 0 95 16 134 69 20 26 21 43 24 296 l3 269 269 3 c253 3
270 4 296 24 53 39 69 71 69 134 0 63 -16 95 -69 134 -26 20 -43 21 -296 24
l-269 3 -3 269 c-3 253 -4 270 -24 296 -11 15 -32 37 -46 47 -34 25 -113 32
-153 13z"/>
<path d="M2480 3878 c-65 -45 -74 -68 -80 -195 l-5 -116 -40 -12 c-157 -47
-288 -178 -336 -338 -17 -55 -20 -87 -17 -170 5 -118 32 -195 96 -281 22 -28
174 -166 339 -306 165 -140 311 -270 323 -288 28 -39 37 -116 21 -165 -16 -46
-79 -103 -130 -117 -43 -11 -102 -2 -143 23 -11 7 -62 67 -113 133 -52 67
-107 133 -124 146 -61 52 -156 44 -210 -17 -37 -42 -45 -71 -38 -131 4 -38 21
-66 108 -180 107 -141 168 -203 231 -235 l37 -19 3 -144 c3 -127 5 -148 24
-172 53 -72 128 -91 203 -52 77 40 86 60 89 207 l4 128 53 17 c113 35 222 132
281 248 86 169 66 382 -50 541 -11 16 -158 146 -326 289 -171 145 -317 278
-332 301 -22 32 -28 53 -28 94 0 108 74 187 174 187 87 0 98 -9 291 -254 70
-89 94 -104 160 -104 61 0 95 18 133 75 20 28 23 44 20 91 -4 55 -8 62 -123
214 -86 113 -137 170 -178 201 -33 24 -63 43 -67 43 -5 0 -10 63 -12 139 -3
123 -5 143 -24 168 -35 48 -82 73 -134 73 -32 0 -57 -7 -80 -22z"/>
</g>
</svg>
