<?xml version="1.0" standalone="no"?>
<!DOCTYPE svg PUBLIC "-//W3C//DTD SVG 20010904//EN"
 "http://www.w3.org/TR/2001/REC-SVG-20010904/DTD/svg10.dtd">
<svg version="1.0" xmlns="http://www.w3.org/2000/svg"
 width="500.000000pt" height="500.000000pt" viewBox="0 0 500.000000 500.000000"
 preserveAspectRatio="xMidYMid meet">

<g transform="translate(0.000000,500.000000) scale(0.100000,-0.100000)"
fill="#000000" stroke="none">
<path d="M1290 4413 c-310 -51 -495 -133 -668 -297 -182 -173 -288 -373 -338
-641 -18 -93 -19 -160 -19 -965 0 -665 3 -884 13 -948 41 -261 131 -453 294
-627 156 -167 330 -264 588 -328 83 -21 107 -21 1180 -25 801 -2 1119 0 1184
8 271 36 495 142 670 316 228 229 336 526 336 933 l0 116 50 33 c58 38 109
104 136 176 17 46 19 81 19 336 0 255 -2 290 -19 336 -27 72 -78 138 -136 176
l-50 33 0 117 c0 402 -108 702 -331 927 -154 154 -318 242 -569 304 -84 21
-104 21 -1200 23 -613 1 -1126 0 -1140 -3z m2259 -317 c293 -70 475 -209 586
-449 56 -122 76 -219 82 -404 l6 -163 -170 0 c-199 0 -262 -10 -362 -56 -97
-45 -223 -168 -269 -264 -81 -167 -83 -337 -8 -495 43 -92 103 -165 179 -222
129 -96 233 -123 468 -123 l162 0 -6 -162 c-6 -186 -26 -283 -82 -405 -126
-273 -352 -425 -690 -463 -121 -13 -1979 -13 -2100 0 -394 45 -655 263 -747
625 l-23 90 0 895 0 895 23 90 c92 363 354 581 751 625 42 4 537 7 1101 6 942
-2 1031 -4 1099 -20z m863 -1343 c16 -15 18 -36 18 -253 0 -220 -1 -238 -19
-254 -17 -16 -44 -17 -277 -14 l-259 3 -54 30 c-214 118 -194 404 34 492 20 8
115 12 284 12 223 1 257 -1 273 -16z"/>
<path d="M1393 3260 c-117 -53 -111 -229 9 -274 38 -15 114 -16 700 -14 648 3
657 3 685 24 97 72 97 186 0 258 -28 21 -36 21 -690 23 -636 3 -664 2 -704
-17z"/>
</g>
</svg>
